<?xml version="1.0" encoding="utf-8"?>
<!-- Generator: Adobe Illustrator 16.0.4, SVG Export Plug-In . SVG Version: 6.00 Build 0)  -->
<!DOCTYPE svg PUBLIC "-//W3C//DTD SVG 1.1//EN" "http://www.w3.org/Graphics/SVG/1.1/DTD/svg11.dtd">
<svg version="1.1" id="Layer_1" xmlns="http://www.w3.org/2000/svg" xmlns:xlink="http://www.w3.org/1999/xlink" x="0px" y="0px"
	 width="300px" height="58px" viewBox="0 0 300 58" enable-background="new 0 0 300 58" xml:space="preserve">
<path fill="#FF6C2C" d="M271.56,0.608c-11.808,0-21.131,5.292-25.165,15.7c-3.363-10.465-12.63-15.7-24.407-15.7
	c-9.576,0-17.518,3.591-22.331,10.524V1.31h-4.806c-5.509,0-10.816,2.404-13.521,7.01V1.31h-14.192h-0.729h-4.077
	c-5.509,0-10.815,2.404-13.52,7.01V1.31h-14.922v22.46c-2.174-13.955-11.386-23.161-26.336-23.161
	c-13.447,0-23.678,8.07-26.537,20.893v-2.566c0-10.716-7.01-18.327-19.528-18.327c-6.51,0-12.419,2.103-16.625,7.01
	c-2.604-4.106-7.11-7.01-14.621-7.01c-6.51,0-11.317,2.604-14.021,5.909V1.31H1V56.69h15.422V24.043
	c0-7.311,4.306-10.616,9.013-10.616c5.709,0,7.812,4.207,7.812,9.114v34.15H48.77V24.043c0-7.311,4.206-10.616,8.914-10.616
	c5.708,0,7.911,4.207,7.911,9.114v34.15h15.422V36.863c2.654,12.309,11.857,20.528,26.637,20.528
	c16.922,0,24.255-10.135,26.236-17.241v16.54h15.422V27.248c0-7.712,4.507-10.615,12.117-10.615c1.521,0,3.818,0.051,4.979,0.08
	V56.69h15.422V27.248c0-7.712,4.507-10.615,12.118-10.615c0.812,0,1.849,0.015,2.816,0.033c-1.37,3.611-2.117,7.81-2.117,12.585
	c0,18.827,11.719,28.141,27.641,28.141c12.045,0,20.782-5.247,24.149-15.553c4.056,10.297,13.354,15.553,25.122,15.553
	c16.022,0,27.44-9.614,27.44-28.342C299,10.223,287.582,0.608,271.56,0.608z M107.653,12.727c4.808,0,9.414,2.604,10.015,9.414
	h-20.83C97.438,16.633,101.945,12.727,107.653,12.727z M118.169,37.662c-0.201,1.804-2.503,7.212-10.516,7.212
	c-8.412,0-11.316-6.411-11.316-12.52h37.552v5.308H118.169z M232.302,35.761c-1,6.608-5.507,9.113-10.413,9.113
	c-6.311,0-11.317-4.508-11.317-15.824c0-11.417,4.907-15.923,11.517-15.923c5.208,0,9.214,2.604,10.016,9.414h12.621
	c-0.331,2.031-0.505,4.2-0.505,6.509c0,2.386,0.188,4.621,0.544,6.711H232.302z M271.56,44.874c-6.51,0-11.617-4.508-11.617-15.824
	c0-11.417,5.107-15.923,11.617-15.923c6.709,0,11.717,4.507,11.717,15.923C283.276,40.366,278.269,44.874,271.56,44.874z"/>
</svg>
